<?xml version="1.0" encoding="utf-8"?>
<!-- Generator: Adobe Illustrator 24.0.1, SVG Export Plug-In . SVG Version: 6.00 Build 0)  -->
<svg version="1.1" id="Слой_2_1_" xmlns="http://www.w3.org/2000/svg" xmlns:xlink="http://www.w3.org/1999/xlink" x="0px"
	 y="0px" viewBox="0 0 1098.6 852.9" style="enable-background:new 0 0 1098.6 852.9;" xml:space="preserve">
<style type="text/css">
	.st0{fill:none;stroke:#20326C;stroke-miterlimit:10;}
	.st1{fill:none;}
	.st2{fill:#00AE98;stroke:#003034;stroke-width:15;stroke-miterlimit:10;}
	.st3{fill:#006258;}
	.st4{fill:#007896;}
	.st5{fill:#003034;}
	.st6{fill:#00505D;}
</style>
<title>cactusweb_logo_no_text</title>
<path class="st0" d="M82.2,3"/>
<line class="st1" x1="455.2" y1="35.1" x2="362.4" y2="349.2"/>
<line class="st1" x1="224.2" y1="93.1" x2="253.9" y2="274.4"/>
<polygon class="st2" points="1089.9,17 964.1,838.4 732.4,838.4 547.7,235.1 372.1,838.4 134.3,838.4 8.7,17 242.2,17 308.3,448.9 
	436.8,7.5 656,7.5 790.5,446.6 856.2,17 "/>
<path class="st3" d="M985.7,59.7h-94.5c-4.3,0-7.8-3.4-7.8-7.7l0,0l0,0c0-4.3,3.4-7.8,7.7-7.8l0,0h94.5c4.3,0,7.8,3.5,7.8,7.8l0,0
	l0,0C993.4,56.2,990,59.7,985.7,59.7z"/>
<path class="st3" d="M171.5,813.5c-3.8,0-7.1-2.9-7.6-6.7L44.6,53.1c-0.8-4.3,2.1-8.4,6.3-9.1l0,0c0.4-0.1,0.8-0.1,1.2-0.1h164.4
	c4.4,0,8,3.6,8,8s-3.6,8-8,8H61.4L179,804.4c0.7,4.3-2.1,8.3-6.4,9l0,0L171.5,813.5L171.5,813.5z"/>
<path class="st3" d="M219.2,807.6c-0.2-0.7-0.4-1.5-0.6-2.2c-0.6-4.1,1.3-7.5,4.5-7.5l127.3,0.2c3.2,0,6.5,3.5,7.1,7.6
	s-1.3,7.5-4.5,7.5L225.7,813C222.7,812.5,220.3,810.4,219.2,807.6z"/>
<path class="st3" d="M362.4,356.8c-4,0.2-7.5-2.9-7.7-7c0-0.8,0.1-1.7,0.3-2.5l0,0l92.8-314.1c0.9-4,4.9-6.6,9-5.7
	c4,0.9,6.6,4.9,5.7,9c-0.1,0.3-0.1,0.5-0.2,0.8l0,0l-92.7,314.1C368.7,354.6,365.7,356.8,362.4,356.8z"/>
<path class="st3" d="M254.1,281.9c-3.7,0.1-6.8-2.6-7.3-6.3l-30-181.2c-0.7-4.1,2.1-8,6.2-8.6l0,0l0,0c4.1-0.7,8,2.1,8.6,6.2l0,0
	l29.8,181c0.6,4.1-2.2,8-6.3,8.6C254.8,281.8,254.4,281.9,254.1,281.9z"/>
<path class="st3" d="M934.4,813.2H754.5c-4.2-0.2-7.4-3.7-7.3-7.8c0.1-4,3.3-7.1,7.3-7.3H928l114.6-747.6c0.6-4.1,4.4-7,8.5-6.4
	s7,4.4,6.4,8.5c0,0.1,0,0.2,0,0.3L942,806.7C941.4,810.4,938.2,813.2,934.4,813.2z"/>
<path class="st4" d="M357,379.3h-60.6c-9.9,0-23.3,6.5-23.3,23.7v136c1.9,15.3,4.8,19,15.3,26.5c10.1,7.1,18.5,7.5,29.3,7.5
	c9.1,0,72.7,0,91.9-0.4c-11,0.2,17.7-1.3,27,5.6c16,11.9,14.2,37.8,14.2,70.1c0,66.2-0.2,150.2,0,195.9c58.9,0,195.5,0.4,195.5,0.4
	V527.5c0,0,0-43.8,36.9-44.2c37.8-0.2,102.1-0.6,102.1-0.6s39.7,1.9,39.7-39.5s-0.9-176.5-0.9-176.5s1.1-24.4-29.1-24.4h-40.9
	c0,0-30.9-2-30.9,22.9v100.6c0,0-1.5,21.4-22.2,21.4h-36.5c0,0-18.8-0.2-18.8-20.9s-0.2-218.8-0.2-218.8s1.1-28.3-28-28.3h-133
	c0,0-33.2-2.4-33.2,28.3c-0.4,28.7,0.2,310.7,0,309.8c0,0,0,25.2-17,25.2h-34.8c0,0-21.4,1.9-22-29.1v-51.1
	C377.2,385.8,366.5,379.7,357,379.3z"/>
<path class="st5" d="M654.5,852.9h-8c0,0-136.6-0.4-195.5-0.4h-8v-8c-0.2-37.3-0.2-99.9,0-157.5v-47.3c0.2-26.1,0.2-46.8-11-55.2
	c-3.5-2.6-15.5-3.9-22-3.9l0,0c-17.5,0.2-70.1,0.4-91.9,0.4c-12.1,0-22.2-0.6-34.1-9.1s-16.4-14.2-18.8-31.9V403
	c0-20.7,15.8-31.5,31.3-31.7h61.1c12.9,0.6,28,9.1,28,31.5v50.9c0.2,8.6,2.1,14.9,5.8,18.3c2,1.9,4.7,3,7.5,3h35.4
	c1.5,0,5,0,7.3-7.1c1.1-3.3,1.7-6.7,1.7-10.1v-7.1l0,0V345.9c0-80.9-0.2-181.4,0-197.9c0-10.8,3.5-19.6,10.4-26.1
	c11.4-10.6,28.3-10.1,31.1-10.1h132.9c11,0,19.8,3.4,26.3,9.9c6.6,7.2,10.1,16.8,9.7,26.5c0,0,0.2,198.1,0.2,218.6
	c0,11.2,7.5,12.7,11,12.9h36.5c12.3,0,14-11.6,14.2-14v-99.9c-0.3-8.1,3-15.8,8.8-21.4c11.2-10.6,28.7-9.7,30.6-9.5h40.1
	c12.3,0,21.8,3.5,28.5,10.4c5.7,6.1,8.8,14.1,8.6,22.4c0,0.9,0.9,135.3,0.9,176.3c0,14.7-4.5,26.5-13.4,35
	c-14,13.3-33.9,12.5-34.7,12.5l-101.6,0.6c-27.8,0.2-28.9,32.6-28.9,36.3L654.5,852.9L654.5,852.9z M459,836.5
	c52.9,0,150.8,0.2,179.5,0.4V527.7c0-17.9,9.3-51.8,44.9-52.2l102-0.6c0.4,0,14.5,0.4,23.5-8.2c5.4-5.2,8.2-13.2,8.2-23.3
	c0-40.8-0.9-175.2-0.9-176.5c0-4.1-1.6-8.1-4.3-11.2c-3.5-3.4-9.1-5.4-16.8-5.4h-41c-3.9-0.2-14,0.4-19.2,5.4
	c-2.5,2.6-3.9,6.1-3.7,9.7v100.5c-0.7,10.6-8,29.4-30.2,29.4h-36.7c-10.8-0.2-26.8-8-26.8-28.9c0-20.5-0.2-218.8-0.2-218.8
	c0-0.4,0.2-9.5-5.4-15.1c-3.2-3.5-8.2-5-14.7-5H480.8c-4.1,0.2-11.6,1.3-16.6,5.8c-3.5,3.2-5.2,8-5.2,14.4
	c-0.2,16.4,0,116.9,0,197.9v78.8c0,17.7,0,27.6-0.6,33.2h0.4c-0.1,5.1-0.9,10.2-2.6,15.1c-3.8,11.7-11.8,18.2-22.4,18.2H399
	c-6.9,0.1-13.6-2.3-18.8-6.9c-7.3-6.5-11-16.6-11.2-30v-51.1c0-12.3-6.7-15.3-12.5-15.5h-60.4c-8.1-0.3-14.9,6.1-15.1,14.1l0,0
	c0,0.5,0,1.1,0,1.6v135.5c1.7,12.9,3.5,14.5,12.1,20.7c8.2,5.8,14.7,6,24.8,6c16.4,0,70.1,0,89.8-0.2h1.9c9.7-0.2,25.7,2.4,31.9,7.1
	c17.7,13.2,17.7,38.6,17.5,68v47C458.8,740.7,458.8,798.7,459,836.5z"/>
<path class="st4" d="M478.2,435.2v-266c0,0,0-20.7,18.3-20.7h124.3"/>
<path class="st6" d="M478.2,443.2c-4.4,0-8-3.5-8-7.9V169.1c0-11.4,7.1-28.7,26.5-28.7H621c4.4,0,8,3.5,8,7.9l0,0
	c-0.1,4.4-3.6,7.9-8,8H496.8c-9.5,0-10.4,9.7-10.4,12.8v266c0,4.4-3.6,8-8,8L478.2,443.2z"/>
<path class="st6" d="M620.8,356.4c-4.4,0-8-3.5-8-7.9V214.2c0-4.4,3.6-8,8-8s8,3.6,8,8v134.2c0.1,4.3-3.3,7.9-7.6,8l0,0l0,0H620.8z"
	/>
<path class="st6" d="M801.6,456.8c-4.4,0-8-3.5-8-7.9V285c0-3.7,0.2-10.1-1.1-11.4c-1-0.6-2.1-0.8-3.2-0.6h-33c-4.4,0-8-3.5-8-7.9
	l0,0c0.1-4.4,3.6-7.9,8-8h33c6.3,0,11.2,1.7,14.7,5.4c6,6,5.8,14.9,5.8,22.9v163.5C809.7,453.2,806.1,456.8,801.6,456.8z"/>
<path class="st6" d="M478.2,826.3c-4.4,0-8-3.5-8-7.9l0,0c0-1.7-0.6-177.1-0.4-217.9c0.2-15.8-3.5-27.6-10.8-34.7
	c-4.4-4.5-10.2-7.2-16.4-7.8H323.5c-12.3,0-21.8-3.5-28.3-10.4c-5.3-6.1-8-14-7.5-22v-99.9c0-4.4,3.6-8,8-8s8,3.6,8,8v100.8
	c-0.3,3.9,1,7.8,3.5,10.8c3.2,3.5,8.6,5.2,16.2,5.2h119c10.5,0.6,20.5,5,27.9,12.5c10.4,10.3,15.5,25.9,15.3,46.2
	c-0.2,40.6,0.4,216,0.4,217.7c0.1,4.1-3.2,7.5-7.3,7.6l0,0L478.2,826.3L478.2,826.3z"/>
<path class="st6" d="M621.2,826.3H514.7c-4.4,0-8-3.5-8-7.9l0,0c0.1-4.4,3.6-7.9,8-8h106.5c4.4,0,8,3.5,8,7.9l0,0
	C629.2,822.7,625.6,826.3,621.2,826.3z"/>
</svg>
